<?xml version="1.0" encoding="utf-8"?>
<svg xmlns="http://www.w3.org/2000/svg" id="Layer_2" viewBox="0 0 930.48 213.36">
  <defs>
    <style>.cls-1{fill:#000c27;}.cls-1,.cls-2,.cls-3,.cls-4,.cls-5,.cls-6,.cls-7,.cls-8,.cls-9{stroke-width:0px;}.cls-1,.cls-3,.cls-5,.cls-6,.cls-8,.cls-9{fill-rule:evenodd;}.cls-2{fill:#000c26;}.cls-3{fill:#fff;}.cls-4{fill:#000a20;}.cls-5{fill:#777;}.cls-6{fill:#d9d9d9;}.cls-7,.cls-8{fill:#fa8130;}.cls-9{fill:#d1611b;}</style>
  </defs>
  <g id="Layer_1-2">
    <path class="cls-2" d="M179.35,118.81h8.13l20.58,76.27,20.71-68.41h7.47l20.71,68.41,20.44-76.27h8.13l-24.64,91.74h-7.47l-20.97-69.07-20.84,69.07h-7.6l-24.64-91.74Z" style="fill: rgb(255, 255, 255);"/>
    <path class="cls-2" d="M303.13,208.06c-3.98-1.66-7.54-4.02-10.68-7.08-3.06-3.15-5.42-6.7-7.08-10.68-1.66-3.97-2.49-8.15-2.49-12.52s.83-8.54,2.49-12.52c1.66-3.97,4.02-7.54,7.08-10.68,3.15-3.06,6.7-5.42,10.68-7.08,3.98-1.66,8.15-2.49,12.52-2.49s8.54.83,12.52,2.49c3.97,1.66,7.54,4.02,10.68,7.08,3.06,3.15,5.42,6.71,7.08,10.68,1.66,3.98,2.49,8.15,2.49,12.52v3.93h-57.4c.7,3.93,2.21,7.49,4.52,10.68,2.31,3.19,5.22,5.7,8.72,7.54,3.49,1.83,7.29,2.75,11.4,2.75,3.41,0,6.64-.66,9.7-1.97,3.06-1.31,5.77-3.19,8.13-5.64l5.64,5.5c-2.97,3.15-6.47,5.55-10.48,7.21-4.11,1.84-8.43,2.75-12.98,2.75s-8.54-.83-12.52-2.49ZM340.15,173.86c-.61-3.93-2.08-7.49-4.39-10.68-2.32-3.19-5.24-5.7-8.78-7.54s-7.32-2.75-11.34-2.75-7.91.92-11.4,2.75c-3.5,1.83-6.4,4.35-8.72,7.54-2.32,3.19-3.82,6.75-4.52,10.68h49.15Z" style="fill: rgb(255, 255, 255);"/>
    <path class="cls-2" d="M376.52,208.06c-3.98-1.66-7.54-4.02-10.68-7.08-3.06-3.15-5.42-6.7-7.08-10.68-1.66-3.97-2.49-8.15-2.49-12.52s.83-8.67,2.49-12.65c1.66-3.97,4.02-7.49,7.08-10.55,3.15-3.15,6.7-5.55,10.68-7.21,3.98-1.66,8.15-2.49,12.52-2.49s8.56.83,12.58,2.49c4.02,1.66,7.56,4.06,10.61,7.21l1.84,1.83v-11.4h7.86v65.53h-7.86v-11.53l-1.84,1.97c-3.06,3.06-6.6,5.42-10.61,7.08-4.02,1.66-8.21,2.49-12.58,2.49s-8.54-.83-12.52-2.49ZM401.55,199.35c3.8-2.23,6.84-5.26,9.11-9.11,2.27-3.84,3.41-7.99,3.41-12.45s-1.14-8.72-3.41-12.52c-2.27-3.8-5.31-6.84-9.11-9.11-3.8-2.27-7.97-3.41-12.52-3.41s-8.61,1.14-12.45,3.41c-3.85,2.27-6.88,5.31-9.11,9.11-2.23,3.8-3.34,7.97-3.34,12.52s1.11,8.61,3.34,12.45c2.23,3.85,5.26,6.88,9.11,9.11,3.84,2.23,7.99,3.34,12.45,3.34s8.71-1.11,12.52-3.34Z" style="fill: rgb(255, 255, 255);"/>
    <path class="cls-2" d="M433.7,145.88h8.51l22.25,53.67,22.25-53.67h8.51l-27.1,65.45h-7.33l-27.1-65.45Z" style="fill: rgb(255, 255, 255);"/>
    <path class="cls-2" d="M516.76,208.84c-3.97-1.66-7.53-4.01-10.67-7.07-3.06-3.14-5.41-6.7-7.07-10.67-1.66-3.97-2.49-8.14-2.49-12.5s.83-8.53,2.49-12.5c1.66-3.97,4.01-7.53,7.07-10.67,3.14-3.05,6.7-5.41,10.67-7.07,3.97-1.66,8.14-2.49,12.5-2.49s8.53.83,12.5,2.49c3.97,1.66,7.53,4.02,10.67,7.07,3.05,3.14,5.41,6.7,7.07,10.67,1.66,3.97,2.49,8.14,2.49,12.5v3.93h-57.34c.7,3.93,2.2,7.48,4.52,10.67,2.31,3.19,5.21,5.69,8.7,7.53,3.49,1.83,7.29,2.75,11.39,2.75,3.4,0,6.63-.65,9.69-1.96,3.05-1.31,5.76-3.18,8.12-5.63l5.63,5.5c-2.97,3.14-6.46,5.54-10.47,7.2-4.1,1.83-8.42,2.75-12.96,2.75s-8.53-.83-12.5-2.49ZM553.74,174.68c-.61-3.93-2.07-7.48-4.39-10.67-2.31-3.18-5.24-5.69-8.77-7.53s-7.31-2.75-11.32-2.75-7.9.92-11.39,2.75c-3.49,1.83-6.39,4.34-8.7,7.53-2.31,3.19-3.82,6.74-4.52,10.67h49.09Z" style="fill: rgb(255, 255, 255);"/>
    <path class="cls-2" d="M573.77,145.88h7.85v8.12c2.27-2.44,4.97-4.36,8.12-5.76,3.58-1.57,7.77-2.36,12.57-2.36v7.85c-3.75,0-7.22.7-10.41,2.09-3.19,1.4-5.74,4.19-7.66,8.38-1.57,3.23-2.44,8.99-2.62,17.28v29.98h-7.85v-65.58Z" style="fill: rgb(255, 255, 255);"/>
    <path class="cls-2" d="M615.4,205.57c-2.01-1.57-3.6-3.38-4.78-5.43-1.18-2.05-1.77-3.99-1.77-5.82h7.85c0,.52.3,1.29.92,2.29.61,1,1.48,1.94,2.62,2.81,3.32,2.71,7.68,4.06,13.09,4.06,5.76,0,10.17-1.05,13.22-3.14,2.36-1.57,3.53-3.58,3.53-6.02,0-2.88-1.53-5.28-4.58-7.2-2.18-1.31-5.85-2.7-11-4.19l-4.32-1.31c-5.76-1.66-10.04-3.36-12.83-5.11-2.53-1.48-4.5-3.27-5.89-5.37-1.75-2.53-2.62-5.32-2.62-8.38,0-2.62.61-5.02,1.83-7.2,1.22-2.18,2.97-4.01,5.24-5.5,4.36-2.97,10.25-4.45,17.67-4.45s13.22,1.92,17.93,5.76c2.01,1.57,3.6,3.38,4.78,5.43,1.18,2.05,1.77,4.04,1.77,5.96h-7.85c0-.61-.31-1.42-.92-2.42-.61-1-1.49-1.94-2.62-2.81-3.32-2.7-7.68-4.06-13.09-4.06-5.85,0-10.3,1.05-13.35,3.14-2.36,1.57-3.53,3.62-3.53,6.15,0,2.79,1.57,5.15,4.71,7.07,2.18,1.4,5.85,2.84,11,4.32l4.32,1.18c5.76,1.66,10.03,3.36,12.83,5.11,2.53,1.57,4.49,3.36,5.89,5.37,1.66,2.53,2.49,5.37,2.49,8.51,0,2.53-.59,4.89-1.77,7.07-1.18,2.18-2.9,4.02-5.17,5.5-4.36,2.97-10.26,4.45-17.67,4.45s-13.22-1.92-17.93-5.76Z" style="fill: rgb(255, 255, 255);"/>
    <path class="cls-2" d="M686.81,208.84c-3.97-1.66-7.53-4.01-10.67-7.07-3.06-3.14-5.41-6.7-7.07-10.67-1.66-3.97-2.49-8.14-2.49-12.5s.83-8.55,2.49-12.57c1.66-4.01,4.01-7.55,7.07-10.6,3.14-3.05,6.7-5.41,10.67-7.07,3.97-1.66,8.14-2.49,12.5-2.49s8.55.83,12.57,2.49c4.01,1.66,7.55,4.02,10.6,7.07,3.14,3.06,5.54,6.59,7.2,10.6,1.66,4.02,2.49,8.2,2.49,12.57s-.83,8.53-2.49,12.5c-1.66,3.97-4.06,7.53-7.2,10.67-3.06,3.06-6.59,5.41-10.6,7.07-4.02,1.66-8.2,2.49-12.57,2.49s-8.53-.83-12.5-2.49ZM711.81,200.14c3.8-2.23,6.83-5.24,9.1-9.03,2.27-3.8,3.4-7.96,3.4-12.5s-1.13-8.71-3.4-12.5c-2.27-3.8-5.3-6.81-9.1-9.03-3.8-2.23-7.96-3.34-12.5-3.34s-8.6,1.11-12.44,3.34c-3.84,2.23-6.87,5.24-9.1,9.03-2.22,3.8-3.34,7.96-3.34,12.5s1.11,8.71,3.34,12.5c2.23,3.8,5.26,6.81,9.1,9.03,3.84,2.23,7.99,3.34,12.44,3.34s8.7-1.11,12.5-3.34Z" style="fill: rgb(255, 255, 255);"/>
    <path class="cls-2" d="M749.7,153.73h-12.3v-7.85h12.3c-.35-7.15,1.7-13.24,6.15-18.26,4.45-5.02,9.9-7.72,16.36-8.12,6.46-.39,12.17,2.07,17.15,7.4l-6.41,4.45c-2.97-2.88-6.53-4.21-10.67-3.99-4.15.22-7.68,1.99-10.6,5.3-2.92,3.32-4.3,7.72-4.12,13.22h19.77v7.85h-19.77v57.6h-7.85v-57.6Z" style="fill: rgb(255, 255, 255);"/>
    <path class="cls-2" d="M801.93,153.73h-15.18v-7.85h15.18v-18.2h7.85v18.2h15.32v7.85h-15.32v57.6h-7.85v-57.6Z" style="fill: rgb(255, 255, 255);"/>
    <path class="cls-2" d="M845.13,145.88h7.85v65.45h-7.85v-65.45Z" style="fill: rgb(255, 255, 255);"/>
    <path class="cls-2" d="M885.12,208.84c-3.97-1.66-7.53-4.01-10.67-7.07-3.06-3.14-5.41-6.7-7.07-10.67-1.66-3.97-2.49-8.14-2.49-12.5s.83-8.55,2.49-12.57c1.66-4.01,4.01-7.55,7.07-10.6,3.14-3.05,6.7-5.41,10.67-7.07,3.97-1.66,8.14-2.49,12.5-2.49s8.55.83,12.57,2.49c4.01,1.66,7.55,4.02,10.6,7.07,3.14,3.06,5.54,6.59,7.2,10.6,1.66,4.02,2.49,8.2,2.49,12.57s-.83,8.53-2.49,12.5c-1.66,3.97-4.06,7.53-7.2,10.67-3.06,3.06-6.59,5.41-10.6,7.07-4.02,1.66-8.2,2.49-12.57,2.49s-8.53-.83-12.5-2.49ZM910.13,200.14c3.8-2.23,6.83-5.24,9.1-9.03,2.27-3.8,3.4-7.96,3.4-12.5s-1.13-8.71-3.4-12.5c-2.27-3.8-5.3-6.81-9.1-9.03-3.8-2.23-7.96-3.34-12.5-3.34s-8.6,1.11-12.44,3.34c-3.84,2.23-6.87,5.24-9.1,9.03-2.22,3.8-3.34,7.96-3.34,12.5s1.11,8.71,3.34,12.5c2.23,3.8,5.26,6.81,9.1,9.03,3.84,2.23,7.99,3.34,12.44,3.34s8.7-1.11,12.5-3.34Z" style="fill: rgb(255, 255, 255);"/>
    <path class="cls-2" d="M827.55,202.51c-2.63,0-4.77,2.13-4.77,4.76s2.14,4.77,4.77,4.77,4.77-2.13,4.77-4.77-2.14-4.76-4.77-4.76"/>
    <path class="cls-7" d="M827.55,202.51c-2.63,0-4.77,2.13-4.77,4.76s2.14,4.77,4.77,4.77,4.77-2.13,4.77-4.77-2.14-4.76-4.77-4.76"/>
    <path class="cls-4" d="M849.06,125.74c-2.63,0-4.77,2.13-4.77,4.76s2.14,4.77,4.77,4.77,4.77-2.13,4.77-4.77-2.14-4.76-4.77-4.76"/>
    <path class="cls-8" d="M151.84,190.57c-5.77,6.94-13.14,12.43-21.46,15.94l-6.49,2.74h39.3l-.15-1.56c-.63-6.78-3.97-12.98-9.21-17.31l-1.1-.9-.91,1.09Z"/>
    <path class="cls-9" d="M151.32,191.18c-5.69,6.65-12.86,11.91-20.94,15.32l-4.72,1.99,14.68.08c7.17-4.45,12.66-9.55,16.49-15.3-.27-.31-.55-.61-.84-.91l-4.67-1.18Z"/>
    <path class="cls-5" d="M131.6,8.75c11.03,10.64,16.54,15.96,16.54,15.96-15.36-10.71-29.32-12.85-41.86-6.44-6.28,4.13-11.02,8.66-14.23,13.58-7.48,10.69-16.05,14.68-25.7,11.96,2.4-17.39,10.85-29.53,25.34-36.43,12.46-5.91,25.76-5.45,39.91,1.36"/>
    <path class="cls-3" d="M131.6,8.75l12.84,12.39c-6.72-3.78-14.28-7.01-22.67-9.68-13.38-2.81-24.83-2.11-34.34,2.1.25-1.53.56-3,.9-4.42,1.08-.62,2.2-1.21,3.37-1.76,12.46-5.91,25.76-5.45,39.91,1.36"/>
    <path class="cls-5" d="M110.31,91.47v33.52c0,46.99-38.09,85.08-85.08,85.08H5.15c33.58,0,61.06-27.48,61.06-61.06V47.38c0,24.35,19.74,44.1,44.1,44.1"/>
    <path class="cls-3" d="M55.29,183.75c6.87-9.88,10.91-21.85,10.91-34.73V63.08c.57.03,1.14.07,1.71.14.89.88,1.67,1.75,2.33,2.62.73,1.57,1.54,3.1,2.44,4.56.6,1.96.62,3.92.06,5.86-.11,22.87-.11,45.75,0,68.62.08,18.83-5.31,33.05-16.16,42.66-.44-1.28-.87-2.55-1.3-3.8"/>
    <path class="cls-3" d="M110.31,125v-33.52h39.18c-9.66,6.74-9.61,15.25,0,25.65,9.07,9.82,14.52,23.01,14.52,37.44,0,30.66-24.85,55.51-55.51,55.51H25.23c46.99,0,85.08-38.09,85.08-85.08"/>
    <path class="cls-6" d="M110.31,125v-33.52l12.77.78v15.96c-.03.59-.04,1.2-.03,1.82,1.03,37.44-13.1,62.42-32.74,74.74,6.4-9.73,11.28-19.71,14.62-29.93,3.48-9.29,5.39-19.34,5.39-29.84"/>
    <path class="cls-8" d="M133.69,6.84c37.9,14.14,55.9,42.35,53.98,84.63h-71.77c23.78-6.39,36.56-19.91,38.37-40.57.69-16.73-6.17-31.42-20.58-44.06"/>
    <path class="cls-9" d="M138.23,9.77c4.88,2.26,9.37,4.79,13.47,7.59,4.12,3.53,7.64,7.99,10.56,13.37,6.3,23.28.86,42.3-16.3,57.06-3.28,1.89-6.67,2.99-10.18,3.28h-3.92c-2.37-.19-4.79-.74-7.27-1.62,4.52-3.31,10.02-5.04,13.36-8.41,7-5.88,12.76-14.81,14.75-23.94.04-.2.09-.4.13-.61.38-1.86.66-3.79.83-5.78.56-13.53-6.67-25.92-15.99-36.78l.56-4.15Z"/>
    <path class="cls-3" d="M142.67,10.64l.27.13c2.58,1.23,5.04,2.55,7.4,3.94l.1.06c.43.25.85.51,1.27.77l.28.18c.35.22.69.43,1.03.65.14.09.27.17.41.26.32.2.63.41.94.62.15.1.3.2.45.3,22.78,15.41,33.76,39.16,32.93,71.26-.99-.18-1.99-.38-3.02-.61-1.11-24.67-10.19-44.05-27.24-58.15h0c-.31-.26-.63-.52-.95-.78h0c-.31-.26-.63-.51-.95-.75l-.03-.03c-.31-.24-.63-.49-.95-.73l-.04-.03c-.32-.24-.63-.47-.95-.71l-.07-.05c-.32-.23-.64-.46-.96-.69l-.06-.04c-.32-.23-.65-.46-.98-.68l-.06-.04c-.33-.23-.66-.45-1-.67l-.06-.04c-.33-.22-.67-.44-1.01-.66l-.06-.04c-.34-.22-.69-.44-1.04-.66l-.03-.02c-.36-.22-.72-.45-1.08-.67h0s-.04-.07-.04-.07l-.07-.12-.09-.14-.08-.14-.08-.13-.08-.13-.08-.13-.08-.13-.1-.16-.06-.1-.07-.11-.09-.13v-.02s-.09-.11-.09-.11h0s-.09-.13-.09-.13h0s-.08-.13-.08-.13l-.09-.13-.09-.13-.09-.13h0s-.08-.12-.08-.12h0s-.09-.15-.09-.15h0s-.08-.12-.08-.12h0s-.09-.14-.09-.14c-.09-.13-.18-.26-.27-.4h0c-.36-.54-.74-1.06-1.12-1.59h0c-.9-1.23-1.87-2.43-2.89-3.63h0c-2.2-2.57-4.68-5.07-7.44-7.49,3.13,1.17,6.13,2.44,8.99,3.8"/>
    <path class="cls-3" d="M149.94,66.74c-5.98,11.8-15.26,19.41-27.82,22.82-21.13,4.74-37.6-1.64-49.42-19.14-5.11-9.74-7.26-18.21-6.43-25.43,10.47,1.74,18.98-1.97,25.54-11.13,4.77-6.38,9.15-10.85,13.14-13.4,15.19-7.67,29.3-5.49,42.32,6.56,8.41,11.93,9.3,25.17,2.66,39.72"/>
    <path class="cls-6" d="M67.49,45.17c9.91,1.26,18.01-2.51,24.32-11.31,4.62-6.19,8.89-10.58,12.79-13.17.45-.26.9-.49,1.34-.72.47-.23.94-.44,1.41-.65,3.82-1.61,7.58-2,11.29-1.18-25.99,5.75-20.11,35.85-49.05,32.25-1.52-1.67-2.22-3.42-2.1-5.23"/>
    <path class="cls-1" d="M134.37,88.2c3.44-2.03,6.61-4.49,9.44-7.32,8.91-8.91,13.88-20.89,13.88-33.5,0-.15,0-.31,0-.46-.11-11.9-4.65-23.2-12.74-31.86,6.7,3.51,12.85,8.03,18.21,13.4,14.06,14.06,21.89,32.96,21.89,52.85,0,1.63-.05,3.26-.15,4.89-.04.67-.1,1.34-.16,2.01h-50.37ZM69.49,47.6c5.73.57,10.94-.41,15.75-3.86,3.84-2.75,6.83-6.61,9.73-10.29,3.04-3.87,6.07-7.68,10.13-10.55,5.02-3.54,10.59-4.88,16.68-4.88,7.81,0,15.23,3.07,20.76,8.6,5.43,5.43,8.5,12.7,8.6,20.36h0c0,.14,0,.27,0,.39,0,10.86-4.27,21.18-11.96,28.86-7.68,7.68-18,11.96-28.86,11.96s-21.18-4.27-28.86-11.96c-7.63-7.63-11.9-17.86-11.95-28.64ZM132.45,13.08c-3.44-1.07-7.03-1.62-10.68-1.62-7.33,0-14.13,1.58-20.2,5.81-4.76,3.31-8.22,7.63-11.76,12.13-2.51,3.2-5.21,6.71-8.61,9-3.48,2.35-7.17,3.03-11.23,2.65,1.33-8.54,5.34-16.42,11.47-22.54,7.68-7.68,18-11.96,28.86-11.96,7.94,0,15.59,2.28,22.14,6.52ZM107.03,94.64v30.36c0,21.77-8.57,42.45-23.96,57.84-13.18,13.18-30.3,21.4-48.69,23.45,5.97-3.07,11.45-7.07,16.21-11.83,12.09-12.09,18.9-28.33,18.9-45.44v-77.58c2.03,3.44,4.49,6.61,7.32,9.44,8.11,8.11,18.8,12.98,30.22,13.76ZM113.58,94.75h27.93c-1.62,2.43-2.53,5.15-2.53,8.18,0,6.24,4.02,12.01,8.09,16.42,4.37,4.73,7.81,10.25,10.14,16.25,2.35,6.05,3.52,12.48,3.52,18.97,0,13.9-5.47,27.11-15.3,36.94-9.83,9.83-23.03,15.3-36.94,15.3h-49.8c10.84-4.44,20.71-11.02,29.02-19.32,16.62-16.62,25.88-38.97,25.88-62.48v-30.25ZM135.5,206.8c5.36-2.78,10.28-6.38,14.56-10.66,1.04-1.04,2.03-2.11,2.99-3.22,2.06,1.85,3.78,4.06,5.07,6.52,1.21,2.31,2.01,4.79,2.38,7.36h-24.99ZM125.59,34.47c-3.61,0-6.53,2.92-6.53,6.53s2.92,6.53,6.53,6.53,6.53-2.92,6.53-6.53-2.92-6.53-6.53-6.53ZM157.05,187.72c6.7-9.79,10.24-21.28,10.24-33.16,0-7.3-1.33-14.52-3.97-21.33-2.62-6.77-6.5-12.99-11.42-18.33-2.81-3.05-6.36-7.61-6.36-11.98,0-3.48,2.38-6.17,5-8.17h37.13c1.74,0,3.17-1.35,3.27-3.08.21-1.68.38-3.37.49-5.07.11-1.77.18-3.54.18-5.31,0-21.63-8.52-42.19-23.81-57.49C152.65,8.67,132.33.16,110.91,0c-.2,0-.41,0-.61,0-12.61,0-24.59,4.96-33.5,13.88-8.91,8.91-13.88,20.89-13.88,33.5v101.64c0,15.36-6.12,29.95-16.98,40.8-10.85,10.85-25.44,16.98-40.8,16.98h-1.87c-1.81,0-3.28,1.47-3.28,3.28s1.47,3.28,3.28,3.28h160.72c1.81,0,3.28-1.47,3.28-3.28,0-4.77-1.16-9.44-3.37-13.67-1.73-3.3-4.06-6.25-6.87-8.68Z"/>
  </g>
</svg>